<svg width="113" height="23" viewBox="0 0 113 23" fill="none" xmlns="http://www.w3.org/2000/svg">
<path d="M10.6245 4.22732C10.8425 4.22732 11.054 4.23699 11.2655 4.2532C11.9514 4.31155 12.6116 4.46395 13.2301 4.69088C14.791 5.26792 16.1146 6.34099 17.0088 7.72524C16.6371 4.84652 14.9064 2.39895 12.4866 1.07305C11.2431 0.389035 9.81688 0 8.30092 0C7.02213 0 5.035 0.27227 3.9389 0.768266C2.29795 1.368 1.2243 2.34379 0 3.44924L5.07348 6.65543C6.46124 5.15771 8.43232 4.22732 10.6245 4.22732Z" fill="#003EDC"/>
<path d="M15.9666 11.4554H15.9634C15.8096 11.4684 15.6558 11.4781 15.5051 11.4846H15.4667C14.8289 11.5008 14.1846 11.4359 13.5597 11.2901C12.7488 11.102 11.9604 10.7811 11.2329 10.3175C10.7521 10.016 10.3002 9.65299 9.88356 9.23156C9.76498 9.11485 9.65287 8.99162 9.5471 8.86844C8.76829 7.9737 8.23305 6.94604 7.93499 5.86328C7.06964 6.27823 6.29399 6.85526 5.64658 7.549C4.89982 8.34973 4.32293 9.31261 3.97038 10.3792C3.89987 10.5964 3.83574 10.82 3.78126 11.0502L3.62743 11.9254L3.0153 15.4331L2.87109 16.25L3.40309 15.7897L4.2973 15.0116L4.15309 13.0537C4.12104 12.8559 4.10497 12.6549 4.10497 12.4474V12.4279L9.29069 12.5447C8.44778 12.9337 6.96064 14.2433 6.38054 14.8593L6.37412 14.869C6.24272 15.0084 6.11774 15.1511 5.99595 15.3002L5.55363 17.0962L5.50237 17.3036H5.50558L5.38062 17.8093L5.35817 17.9034L4.10497 22.9995L8.83232 20.4416L8.87723 20.205L9.05673 19.2519C9.07596 19.1612 9.09517 19.0834 9.1144 19.0153C9.16568 18.8208 9.19135 18.7268 9.2234 18.6393C9.27468 18.4772 9.33237 18.3183 9.38685 18.1756C10.4669 15.3326 11.8226 14.6842 11.7328 14.6842C11.8034 14.6259 11.8803 14.5707 11.9572 14.5189C12.6142 14.0553 13.4732 13.7214 14.4026 13.5918C14.5436 13.5723 14.7039 13.5561 14.8705 13.5528L14.9155 13.5496L15.7712 12.5868L16.9025 11.3095L16.8416 11.3225C16.5499 11.3841 16.2583 11.4295 15.9666 11.4554Z" fill="#003EDC"/>
<path d="M26.2369 15.4506C26.0607 15.9272 25.7786 16.2936 25.362 16.5432C24.955 16.7895 24.487 16.9095 23.9614 16.9095C23.4197 16.9095 22.9967 16.7993 22.689 16.5626C22.3813 16.3292 22.2211 16.0116 22.2211 15.6096C22.2211 14.7732 22.8524 14.3517 24.1184 14.3517H26.2369V15.4506ZM27.9901 9.12597C27.1087 8.33173 25.8428 7.92969 24.1954 7.92969C23.3461 7.92969 22.5096 8.04317 21.6955 8.27009C20.8878 8.50026 20.1859 8.82119 19.6091 9.2329L20.7148 11.4114C21.0994 11.1066 21.5672 10.8635 22.1153 10.6787C22.6601 10.5037 23.2147 10.413 23.7819 10.413C24.6024 10.413 25.2114 10.5945 25.6152 10.9608C26.0318 11.3271 26.2369 11.8523 26.2369 12.5299H23.7819C22.2307 12.5299 21.0769 12.8216 20.3302 13.3889C19.5834 13.9627 19.2148 14.757 19.2148 15.7554C19.2148 16.3779 19.3719 16.9419 19.6924 17.4282C20.0065 17.9242 20.4648 18.3132 21.0609 18.5953C21.6635 18.8676 22.3717 19.0135 23.1954 19.0135C24.7755 19.0135 25.8524 18.5109 26.4293 17.5125V18.8545H29.317V12.7113C29.317 11.1131 28.8778 9.91697 27.9901 9.12597Z" fill="#F5F0EC"/>
<path d="M53.4242 12.4443C53.5204 11.3454 53.921 10.4701 54.6421 9.78608C55.3504 9.10855 56.2285 8.77136 57.2798 8.77136C58.347 8.77136 59.2316 9.10855 59.9528 9.78608C60.6643 10.4701 61.0681 11.3454 61.161 12.4443H53.4242ZM62.5776 13.0895C62.5776 12.0035 62.3469 11.0342 61.8886 10.1913C61.4303 9.34196 60.8053 8.67735 60.0009 8.20729C59.1996 7.72426 58.2957 7.48438 57.2798 7.48438C56.2702 7.48438 55.3632 7.72426 54.5555 8.20729C53.7479 8.67735 53.1069 9.34196 52.6486 10.1978C52.1839 11.0536 51.9531 12.0197 51.9531 13.0895C51.9531 14.169 52.1903 15.1383 52.6807 15.9941C53.1614 16.837 53.8345 17.5113 54.6966 17.9911C55.5652 18.4806 56.5555 18.7205 57.6773 18.7205C58.5458 18.7205 59.3438 18.5681 60.0714 18.2569C60.7989 17.9521 61.4078 17.5048 61.8886 16.9116L61.0617 15.9423C60.6482 16.4253 60.1515 16.7851 59.5874 17.0315C59.0201 17.2746 58.3951 17.4011 57.7157 17.4011C56.517 17.4011 55.5202 17.0412 54.7286 16.3378C53.9466 15.631 53.514 14.7071 53.4242 13.553H62.552L62.5776 13.0895Z" fill="#F5F0EC"/>
<path d="M70.9286 13.8902C70.5569 13.4817 70.1081 13.2029 69.5857 13.0344C69.0537 12.8658 68.3614 12.6972 67.4928 12.5319C66.7781 12.4055 66.2269 12.2757 65.8327 12.1623C65.4289 12.0423 65.0892 11.8608 64.8199 11.6047C64.5507 11.3453 64.4161 11.0115 64.4161 10.5965C64.4161 10.0519 64.6533 9.61425 65.1372 9.2771C65.6116 8.94319 66.3198 8.77136 67.2621 8.77136C68.5024 8.77136 69.5793 9.08263 70.4767 9.71802L71.1209 8.51849C70.6594 8.21376 70.0825 7.96745 69.3806 7.77618C68.6691 7.58168 67.964 7.48438 67.2621 7.48438C65.9 7.48438 64.8424 7.78262 64.0828 8.37263C63.3232 8.95615 62.9482 9.71797 62.9482 10.6354C62.9482 11.3778 63.1373 11.9613 63.5155 12.3795C63.8937 12.8042 64.352 13.096 64.8904 13.2743C65.4353 13.4493 66.1468 13.6178 67.0345 13.7864C67.698 13.8999 68.2268 14.0101 68.6274 14.1301C69.0344 14.25 69.3646 14.4251 69.6242 14.6553C69.887 14.8887 70.0184 15.2096 70.0184 15.6083C70.0184 16.1854 69.7812 16.6327 69.3037 16.9439C68.8262 17.2551 68.0922 17.4141 67.0954 17.4141C66.3455 17.4141 65.6243 17.3038 64.9385 17.0704C64.243 16.837 63.6758 16.5452 63.2174 16.1757L62.5508 17.3524C63.0091 17.7447 63.6437 18.0721 64.4481 18.3282C65.2558 18.5908 66.1083 18.7205 66.9929 18.7205C68.3999 18.7205 69.5056 18.4287 70.3004 17.8711C71.0952 17.3038 71.4927 16.5387 71.4927 15.5694C71.4927 14.8595 71.31 14.2986 70.9286 13.8902Z" fill="#F5F0EC"/>
<path d="M81.9374 15.3393C81.5785 16.0006 81.0977 16.5063 80.4727 16.8629C79.8478 17.2162 79.1619 17.4011 78.3959 17.4011C77.6171 17.4011 76.9216 17.2162 76.3159 16.8629C75.7005 16.5063 75.2102 16.0006 74.8609 15.3393C74.5051 14.6812 74.332 13.9323 74.332 13.0895C74.332 12.2531 74.5051 11.5107 74.8609 10.8591C75.2102 10.2043 75.7005 9.70175 76.3159 9.33543C76.9216 8.97235 77.6171 8.79083 78.3959 8.79083C79.1619 8.79083 79.8478 8.97235 80.4727 9.33543C81.0977 9.70175 81.5785 10.2043 81.9374 10.8591C82.29 11.5107 82.4631 12.2531 82.4631 13.0895C82.4631 13.9323 82.29 14.6812 81.9374 15.3393ZM83.2291 10.1718C82.7643 9.32249 82.1073 8.6612 81.2804 8.1879C80.4503 7.72432 79.5241 7.48438 78.5017 7.48438C77.5883 7.48438 76.7646 7.68539 76.0371 8.07765C75.3192 8.46991 74.7359 9.03072 74.2904 9.75688V7.57515H72.877V22.6852H74.3545V16.5387C74.8032 17.2487 75.3929 17.7933 76.1012 18.1596C76.8223 18.5357 77.6171 18.7205 78.5017 18.7205C79.5401 18.7205 80.4728 18.487 81.2932 18.017C82.1169 17.5469 82.7643 16.8889 83.2291 16.033C83.7066 15.1772 83.9373 14.2014 83.9373 13.0895C83.9373 12.0035 83.7066 11.0277 83.2291 10.1718Z" fill="#F5F0EC"/>
<path d="M86.1664 12.4443C86.269 11.3454 86.6696 10.4701 87.3843 9.78608C88.0926 9.10855 88.9804 8.77136 90.0285 8.77136C91.0893 8.77136 91.9834 9.10855 92.6949 9.78608C93.4065 10.4701 93.8103 11.3454 93.9032 12.4443H86.1664ZM95.3199 13.0895C95.3199 12.0035 95.0891 11.0342 94.6308 10.1913C94.1789 9.34196 93.5475 8.67735 92.7431 8.20729C91.9418 7.72426 91.0316 7.48438 90.0285 7.48438C89.0189 7.48438 88.1087 7.72426 87.2946 8.20729C86.4869 8.67735 85.8492 9.34196 85.3908 10.1978C84.9261 11.0536 84.6953 12.0197 84.6953 13.0895C84.6953 14.169 84.9389 15.1383 85.4229 15.9941C85.9036 16.837 86.5767 17.5113 87.4452 17.9911C88.3074 18.4806 89.3041 18.7205 90.4162 18.7205C91.2944 18.7205 92.0925 18.5681 92.82 18.2569C93.5475 17.9521 94.1468 17.5048 94.6308 16.9116L93.8007 15.9423C93.3905 16.4253 92.9001 16.7851 92.3296 17.0315C91.7591 17.2746 91.1373 17.4011 90.4675 17.4011C89.256 17.4011 88.2593 17.0412 87.4773 16.3378C86.6889 15.631 86.253 14.7071 86.1664 13.553H95.2942L95.3199 13.0895Z" fill="#F5F0EC"/>
<path d="M104.708 15.7737L105.808 16.5323C105.375 17.2455 104.788 17.79 104.045 18.1564C103.295 18.5324 102.455 18.7173 101.532 18.7173C100.449 18.7173 99.4842 18.4773 98.6381 18.004C97.7856 17.5242 97.1221 16.8597 96.6318 15.9973C96.1478 15.135 95.9043 14.1657 95.9043 13.0862C95.9043 12.0164 96.1478 11.0471 96.6318 10.1946C97.1221 9.33872 97.7856 8.6741 98.6381 8.2008C99.4842 7.72426 100.449 7.48438 101.532 7.48438C102.471 7.48438 103.311 7.67563 104.055 8.04196C104.798 8.41152 105.375 8.9529 105.808 9.6661L104.708 10.4247C104.346 9.88009 103.888 9.47485 103.333 9.19281C102.782 8.9205 102.18 8.78758 101.532 8.78758C100.741 8.78758 100.029 8.96261 99.4073 9.32245C98.7727 9.68229 98.2823 10.1848 97.9266 10.8397C97.5804 11.5042 97.4074 12.2466 97.4074 13.0862C97.4074 13.9421 97.5804 14.6941 97.9266 15.349C98.2823 15.9973 98.7727 16.4998 99.4073 16.8596C100.029 17.213 100.741 17.3978 101.532 17.3978C102.18 17.3978 102.782 17.2617 103.333 16.9958C103.888 16.7235 104.346 16.3248 104.708 15.7737Z" fill="#F5F0EC"/>
<path d="M112.473 16.9079C112.268 17.0927 112.022 17.2288 111.739 17.3229C111.454 17.4298 111.163 17.4752 110.855 17.4752C110.243 17.4752 109.778 17.297 109.454 16.9566C109.131 16.6194 108.964 16.1169 108.964 15.4588V8.87154H112.284V7.61044H108.964V5.19531H107.496V15.5399C107.496 16.561 107.772 17.3553 108.323 17.9129C108.877 18.477 109.666 18.7558 110.688 18.7558C111.131 18.7558 111.557 18.6909 111.967 18.5548C112.371 18.4186 112.717 18.2273 112.996 17.981L112.473 16.9079Z" fill="#F5F0EC"/>
<path d="M26.2369 15.4506C26.0607 15.9272 25.7786 16.2936 25.362 16.5432C24.955 16.7895 24.487 16.9095 23.9614 16.9095C23.4197 16.9095 22.9967 16.7993 22.689 16.5626C22.3813 16.3292 22.2211 16.0116 22.2211 15.6096C22.2211 14.7732 22.8524 14.3517 24.1184 14.3517H26.2369V15.4506ZM27.9901 9.12597C27.1087 8.33173 25.8428 7.92969 24.1954 7.92969C23.3461 7.92969 22.5096 8.04317 21.6955 8.27009C20.8878 8.50026 20.1859 8.82119 19.6091 9.2329L20.7148 11.4114C21.0994 11.1066 21.5672 10.8635 22.1153 10.6787C22.6601 10.5037 23.2147 10.413 23.7819 10.413C24.6024 10.413 25.2114 10.5945 25.6152 10.9608C26.0318 11.3271 26.2369 11.8523 26.2369 12.5299H23.7819C22.2307 12.5299 21.0769 12.8216 20.3302 13.3889C19.5834 13.9627 19.2148 14.757 19.2148 15.7554C19.2148 16.3779 19.3719 16.9419 19.6924 17.4282C20.0065 17.9242 20.4648 18.3132 21.0609 18.5953C21.6635 18.8676 22.3717 19.0135 23.1954 19.0135C24.7755 19.0135 25.8524 18.5109 26.4293 17.5125V18.8545H29.317V12.7113C29.317 11.1131 28.8778 9.91697 27.9901 9.12597Z" fill="#F5F0EC"/>
<path d="M45.3151 12.6756H41.4467V5.30699H45.3151C46.7541 5.30699 47.8535 5.62468 48.6098 6.26655C49.3694 6.89871 49.7475 7.80639 49.7475 8.99937C49.7475 10.1664 49.3694 11.0644 48.6098 11.7128C47.8535 12.3514 46.7541 12.6756 45.3151 12.6756ZM37.7706 15.6353C37.2578 16.1735 36.6103 16.449 35.8347 16.449C35.0431 16.449 34.3925 16.1735 33.8797 15.6353C33.3573 15.1004 33.1009 14.3808 33.1009 13.4698C33.1009 12.5654 33.3573 11.8425 33.8797 11.3011C34.3925 10.7597 35.0431 10.4874 35.8347 10.4874C36.6103 10.4874 37.2578 10.7597 37.7706 11.3011C38.2834 11.8425 38.5365 12.5654 38.5365 13.4698C38.5365 14.3808 38.2834 15.1004 37.7706 15.6353ZM47.9721 13.6222C49.0297 13.2721 49.8501 12.7015 50.427 11.9105C50.9975 11.1163 51.2892 10.1535 51.2892 8.99937C51.2892 7.43358 50.7604 6.20173 49.7091 5.30699C48.6547 4.41226 47.2028 3.96484 45.3535 3.96484L38.4788 4.01352V9.22953C37.7161 8.36072 36.6552 7.92631 35.2995 7.92631C34.2964 7.92631 33.3862 8.15652 32.5817 8.61361C31.7676 9.06098 31.1363 9.70609 30.6683 10.549C30.2068 11.3918 29.9824 12.3611 29.9824 13.4698C29.9824 14.5753 30.2068 15.5511 30.6683 16.3874C31.1363 17.2271 31.7676 17.8754 32.5817 18.326C33.3862 18.7831 34.2964 19.0101 35.2995 19.0101C36.745 19.0101 37.8539 18.5465 38.6198 17.6096V18.8512H41.5653V13.995H45.3535C45.7574 13.995 46.142 13.9755 46.517 13.9334L49.8341 18.6567H51.5199L47.9721 13.6222Z" fill="#F5F0EC"/>
<path d="M53.4242 12.4443C53.5204 11.3454 53.921 10.4701 54.6421 9.78608C55.3504 9.10855 56.2285 8.77136 57.2798 8.77136C58.347 8.77136 59.2316 9.10855 59.9528 9.78608C60.6643 10.4701 61.0681 11.3454 61.161 12.4443H53.4242ZM62.5776 13.0895C62.5776 12.0035 62.3469 11.0342 61.8886 10.1913C61.4303 9.34196 60.8053 8.67735 60.0009 8.20729C59.1996 7.72426 58.2957 7.48438 57.2798 7.48438C56.2702 7.48438 55.3632 7.72426 54.5555 8.20729C53.7479 8.67735 53.1069 9.34196 52.6486 10.1978C52.1839 11.0536 51.9531 12.0197 51.9531 13.0895C51.9531 14.169 52.1903 15.1383 52.6807 15.9941C53.1614 16.837 53.8345 17.5113 54.6966 17.9911C55.5652 18.4806 56.5555 18.7205 57.6773 18.7205C58.5458 18.7205 59.3438 18.5681 60.0714 18.2569C60.7989 17.9521 61.4078 17.5048 61.8886 16.9116L61.0617 15.9423C60.6482 16.4253 60.1515 16.7851 59.5874 17.0315C59.0201 17.2746 58.3951 17.4011 57.7157 17.4011C56.517 17.4011 55.5202 17.0412 54.7286 16.3378C53.9466 15.631 53.514 14.7071 53.4242 13.553H62.552L62.5776 13.0895Z" fill="#F5F0EC"/>
<path d="M70.9287 13.8869C71.31 14.2954 71.4895 14.853 71.4895 15.5662C71.4895 16.5322 71.0952 17.3006 70.2972 17.8679C69.5056 18.4287 68.3999 18.7173 66.9929 18.7173C66.1083 18.7173 65.2558 18.5875 64.4481 18.3249C63.6405 18.0688 63.0091 17.7414 62.5508 17.3492L63.2142 16.1724C63.6725 16.542 64.243 16.837 64.9385 17.0704C65.6243 17.3006 66.3455 17.4141 67.0954 17.4141C68.0922 17.4141 68.8262 17.2519 69.3005 16.9407C69.7844 16.6295 70.0216 16.1821 70.0216 15.6051C70.0216 15.2064 69.887 14.8854 69.6242 14.6553C69.3646 14.4219 69.0312 14.2468 68.6306 14.1268C68.2268 14.0069 67.698 13.8934 67.0313 13.7832C66.1468 13.6146 65.4353 13.4461 64.8904 13.271C64.352 13.096 63.8937 12.801 63.5155 12.3763C63.1373 11.9613 62.945 11.3778 62.945 10.6322C62.945 9.71472 63.3264 8.9529 64.086 8.36938C64.8424 7.77937 65.9032 7.48438 67.2621 7.48438C67.964 7.48438 68.6691 7.57843 69.3806 7.76969C70.0857 7.9642 70.6594 8.21052 71.1209 8.51525L70.4799 9.71477C69.5793 9.08262 68.5024 8.77136 67.2621 8.77136C66.323 8.77136 65.6116 8.93671 65.1372 9.27385C64.6533 9.611 64.4161 10.0487 64.4161 10.5933C64.4161 11.0082 64.5507 11.3453 64.8199 11.6014C65.0892 11.8575 65.4289 12.0391 65.8327 12.159C66.2269 12.2725 66.7813 12.399 67.4928 12.5286C68.3614 12.6972 69.0569 12.8626 69.5857 13.0311C70.1081 13.1997 70.5569 13.4785 70.9287 13.8869Z" fill="#F5F0EC"/>
<path d="M81.9374 15.3393C81.5785 16.0006 81.0977 16.5063 80.4727 16.8629C79.8478 17.2162 79.1619 17.4011 78.3959 17.4011C77.6171 17.4011 76.9216 17.2162 76.3159 16.8629C75.7005 16.5063 75.2102 16.0006 74.8609 15.3393C74.5051 14.6812 74.332 13.9323 74.332 13.0895C74.332 12.2531 74.5051 11.5107 74.8609 10.8591C75.2102 10.2043 75.7005 9.70175 76.3159 9.33543C76.9216 8.97235 77.6171 8.79083 78.3959 8.79083C79.1619 8.79083 79.8478 8.97235 80.4727 9.33543C81.0977 9.70175 81.5785 10.2043 81.9374 10.8591C82.29 11.5107 82.4631 12.2531 82.4631 13.0895C82.4631 13.9323 82.29 14.6812 81.9374 15.3393ZM83.2291 10.1718C82.7643 9.32249 82.1073 8.6612 81.2804 8.1879C80.4503 7.72432 79.5241 7.48438 78.5017 7.48438C77.5883 7.48438 76.7646 7.68539 76.0371 8.07765C75.3192 8.46991 74.7359 9.03072 74.2904 9.75688V7.57515H72.877V22.6852H74.3545V16.5387C74.8032 17.2487 75.3929 17.7933 76.1012 18.1596C76.8223 18.5357 77.6171 18.7205 78.5017 18.7205C79.5401 18.7205 80.4728 18.487 81.2932 18.017C82.1169 17.5469 82.7643 16.8889 83.2291 16.033C83.7066 15.1772 83.9373 14.2014 83.9373 13.0895C83.9373 12.0035 83.7066 11.0277 83.2291 10.1718Z" fill="#F5F0EC"/>
<path d="M86.1664 12.4443C86.269 11.3454 86.6696 10.4701 87.3843 9.78608C88.0926 9.10855 88.9804 8.77136 90.0285 8.77136C91.0893 8.77136 91.9834 9.10855 92.6949 9.78608C93.4065 10.4701 93.8103 11.3454 93.9032 12.4443H86.1664ZM95.3199 13.0895C95.3199 12.0035 95.0891 11.0342 94.6308 10.1913C94.1789 9.34196 93.5475 8.67735 92.7431 8.20729C91.9418 7.72426 91.0316 7.48438 90.0285 7.48438C89.0189 7.48438 88.1087 7.72426 87.2946 8.20729C86.4869 8.67735 85.8492 9.34196 85.3908 10.1978C84.9261 11.0536 84.6953 12.0197 84.6953 13.0895C84.6953 14.169 84.9389 15.1383 85.4229 15.9941C85.9036 16.837 86.5767 17.5113 87.4452 17.9911C88.3074 18.4806 89.3041 18.7205 90.4162 18.7205C91.2944 18.7205 92.0925 18.5681 92.82 18.2569C93.5475 17.9521 94.1468 17.5048 94.6308 16.9116L93.8007 15.9423C93.3905 16.4253 92.9001 16.7851 92.3296 17.0315C91.7591 17.2746 91.1373 17.4011 90.4675 17.4011C89.256 17.4011 88.2593 17.0412 87.4773 16.3378C86.6889 15.631 86.253 14.7071 86.1664 13.553H95.2942L95.3199 13.0895Z" fill="#F5F0EC"/>
<path d="M112.999 17.9777C112.723 18.2273 112.374 18.4186 111.97 18.5548C111.56 18.6909 111.134 18.7558 110.691 18.7558C109.672 18.7558 108.881 18.4737 108.326 17.9161C107.775 17.3553 107.496 16.5643 107.496 15.5399V5.19531H108.967V7.61044H112.288V8.87154H108.967V15.4621C108.967 16.1169 109.134 16.6194 109.458 16.9566C109.781 17.3002 110.249 17.4752 110.858 17.4752C111.166 17.4752 111.457 17.4266 111.743 17.3229C112.028 17.2288 112.272 17.0927 112.477 16.9079L112.999 17.9777Z" fill="#F5F0EC"/>
</svg>
